# xmcd
#
# Track frame offsets:
#	150
#	21610
#	46124
#
# Disc length: 888 seconds
#
# Revision: 5
# Processed by: cddbd v1.5.2PL0 Copyright (c) Steve Scherf et al.
# Submitted via: audiograbber 1.83.01
#
DISCID=1f037603
DTITLE=Ozzy Osbourne - Dreamer
DYEAR=2002
DGENRE=Rock
TTITLE0=Dreamer (Album Version)
TTITLE1=Black Skies
TTITLE2=Dreamer (Acoustic Version)
EXTD=YEAR: 2002
EXTT0=
EXTT1=
EXTT2=
PLAYORDER=
